<svg xmlns="http://www.w3.org/2000/svg" viewBox="0 0 30 30"><path d="M27.985 7.503A14.895 14.895 0 0018.88.517 14.895 14.895 0 007.503 2.015 14.895 14.895 0 00.517 11.12a14.895 14.895 0 001.498 11.378 14.895 14.895 0 009.104 6.986 14.906 14.906 0 0011.377-1.498 14.895 14.895 0 006.987-9.104 14.895 14.895 0 00-1.498-11.378zm-.01 10.974a13.344 13.344 0 01-6.259 8.156 13.344 13.344 0 01-10.193 1.342 13.344 13.344 0 01-8.156-6.259 13.344 13.344 0 01-1.341-10.192 13.345 13.345 0 016.258-8.156 13.353 13.353 0 0110.192-1.342 13.344 13.344 0 018.156 6.258 13.344 13.344 0 011.342 10.193zm-5.781-4.892l-9.64-5.566a1.618 1.618 0 00-1.634 0 1.617 1.617 0 00-.817 1.415v11.132c0 .59.305 1.12.817 1.415.256.148.536.221.817.221.28 0 .561-.074.817-.221l9.64-5.566c.512-.295.817-.824.817-1.415 0-.59-.305-1.12-.817-1.415zm-.78 1.478l-9.641 5.566a.065.065 0 01-.072 0c-.037-.021-.037-.05-.037-.063V9.434c0-.013 0-.042.037-.062a.073.073 0 01.037-.011c.016 0 .028.006.035.01l9.64 5.566c.012.007.036.021.036.063 0 .042-.024.056-.036.063zm2.803-7.186a11.774 11.774 0 00-7.658-4.421.781.781 0 00-.211 1.547 10.2 10.2 0 016.634 3.83.78.78 0 001.095.14.78.78 0 00.14-1.096z"/></svg>