<svg xmlns="http://www.w3.org/2000/svg" viewBox="0 0 30 30"><path d="M27.668 11.643c.544-.53.735-1.306.501-2.028a1.966 1.966 0 00-1.597-1.346l-6.564-.954a.395.395 0 01-.298-.217L16.774 1.15A1.966 1.966 0 0015 .047c-.758 0-1.438.423-1.774 1.103L10.29 7.1a.396.396 0 01-.298.216l-6.564.954a1.966 1.966 0 00-1.597 1.346 1.966 1.966 0 00.5 2.028l4.75 4.63c.094.091.137.222.115.35l-1.122 6.538c-.128.748.174 1.49.787 1.935a1.966 1.966 0 002.084.15l5.871-3.086a.396.396 0 01.368 0l5.872 3.087a1.97 1.97 0 002.083-.15 1.966 1.966 0 00.787-1.936l-1.121-6.537a.396.396 0 01.113-.35l4.75-4.63zm-6.423 5.248l1.121 6.538a.386.386 0 01-.157.387.386.386 0 01-.417.03l-5.871-3.087a1.978 1.978 0 00-1.841 0l-5.872 3.087a.386.386 0 01-.416-.03.385.385 0 01-.158-.387l1.122-6.538a1.978 1.978 0 00-.57-1.751l-4.75-4.63a.386.386 0 01-.1-.406c.023-.07.1-.237.32-.269l6.564-.954A1.978 1.978 0 0011.71 7.8l2.935-5.948A.386.386 0 0115 1.63c.074 0 .257.02.355.22l2.936 5.948c.288.584.845.989 1.49 1.082l6.563.954c.22.032.297.2.32.27.023.07.059.25-.1.405l-4.75 4.63a1.978 1.978 0 00-.57 1.751zm3-15.741a.791.791 0 01.175 1.105l-.84 1.157a.79.79 0 11-1.28-.93l.84-1.157a.791.791 0 011.105-.175zM7.697 2.476a.791.791 0 11-1.28.93l-.84-1.155a.791.791 0 011.28-.93l.84 1.155zM2.903 17.802a.791.791 0 01-.508.998l-1.359.441a.79.79 0 11-.489-1.505l1.36-.442a.791.791 0 01.996.508zM15 26.59c.437 0 .792.354.792.791v1.43a.791.791 0 01-1.583 0v-1.43c0-.437.354-.791.791-.791zm14.453-8.852a.791.791 0 11-.49 1.506l-1.358-.442a.791.791 0 11.489-1.505l1.359.441z"/></svg>